<?xml version="1.0" standalone="no"?>
<!DOCTYPE svg PUBLIC "-//W3C//DTD SVG 20010904//EN"
 "http://www.w3.org/TR/2001/REC-SVG-20010904/DTD/svg10.dtd">
<svg version="1.0" xmlns="http://www.w3.org/2000/svg"
 width="512.000000pt" height="512.000000pt" viewBox="0 0 512.000000 512.000000"
 preserveAspectRatio="xMidYMid meet">

<g transform="translate(0.000000,512.000000) scale(0.100000,-0.100000)"
fill="#000000" stroke="none">
<path d="M2504 5101 c-28 -17 -110 -212 -999 -2386 -537 -1315 -968 -2380
-967 -2396 1 -42 10 -54 146 -189 123 -121 128 -125 169 -124 33 0 225 81 871
364 456 200 834 363 840 363 6 0 383 -163 837 -361 454 -199 840 -365 856
-368 46 -9 76 12 211 149 111 112 122 127 122 160 0 25 -294 755 -946 2349
-520 1272 -957 2338 -970 2369 -38 85 -102 111 -170 70z m971 -2604 l879
-2148 -55 -54 -54 -54 -824 360 c-604 265 -834 361 -860 360 -24 0 -312 -122
-856 -360 l-820 -359 -53 51 c-38 37 -52 58 -49 72 3 11 397 978 877 2150 479
1172 879 2148 888 2169 l16 40 16 -40 c9 -21 412 -1006 895 -2187z"/>
</g>
</svg>
